<svg xmlns="http://www.w3.org/2000/svg" xml:space="preserve" width="618.29266" height="338.63409" viewBox="0 0 618.29266 338.6341"><defs><clipPath id="a" clipPathUnits="userSpaceOnUse"><path d="M0 858.898h612.288V0H0Z"/></clipPath></defs><g clip-path="url(#a)" transform="matrix(1.33333 0 0 -1.33333 -98.252 741.281)"><path d="m0 0 63.836 93.185s-48.602-30.806-97.49-6.995c-48.887 23.809-67.82 23.412-95.278 21.92-27.459-1.498-56.377-14.844-56.377-14.844s11.313 2.538 36.734-5.149c25.426-7.686 35.501-16.978 45.265-27.961 6.497-7.313 12.985-21.758 23.488-35.708 19.132-.405 38.935-4.681 75.457-22.47A93.104 93.104 0 0 1 0 0" style="fill:#5cb531;fill-opacity:1;fill-rule:evenodd;stroke:none" transform="translate(444.064 447.27)"/><path d="M0 0s-48.6-30.807-97.491-6.998c-48.886 23.811-67.819 23.416-95.277 21.923C-220.227 13.429-249.145.083-249.145.083s11.313 2.538 36.736-5.149c25.424-7.687 35.499-16.981 45.262-27.964 9.763-10.988 19.483-38.073 42.874-55.387 16.738-12.391 36.305-15.558 46.087-16.354-29.3-17.024-73.884-27.924-123.923-27.924-58.951 0-110.411 15.095-138.12 37.546 18.99-27.482 73.631-58.848 138.12-58.848 56.834 0 106.006 24.361 129.879 48.959h.276z" style="fill:#006794;fill-opacity:1;fill-rule:nonzero;stroke:none" transform="translate(537.19 456.246)"/><path d="M0 0s-48.6-30.807-97.491-6.998c-48.886 23.811-67.819 23.416-95.277 21.923C-220.227 13.429-249.145.083-249.145.083s11.313 2.538 36.736-5.149c25.424-7.687 35.499-16.981 45.262-27.964 9.763-10.988 19.483-38.073 42.874-55.387 16.738-12.391 36.305-15.558 46.087-16.354-29.3-17.024-73.884-27.924-123.923-27.924-58.951 0-110.411 15.095-138.12 37.546 18.99-27.482 73.631-58.848 138.12-58.848 56.834 0 106.006 24.361 129.879 48.959h.276z" style="fill:none;stroke:#006794;stroke-width:.528;stroke-linecap:butt;stroke-linejoin:miter;stroke-miterlimit:4;stroke-dasharray:none;stroke-opacity:1" transform="translate(537.19 456.246)"/><path d="m0 0 71.973 105.069s-48.613-30.817-97.515-7c-48.901 23.816-67.84 23.421-95.303 21.928-27.466-1.499-56.395-14.85-56.395-14.85s11.319 2.54 36.747-5.149c25.431-7.687 35.509-16.983 45.275-27.969 9.766-10.989 19.488-38.083 42.886-55.407C-28.934-.696 0 0 0 0" style="fill:#5cb531;fill-opacity:1;fill-rule:nonzero;stroke:none" transform="translate(250.929 409.019)"/></g></svg>