<svg xmlns="http://www.w3.org/2000/svg" viewBox="0 0 1592.52 696.98"><path d="M111.81 407.15h-10.56l-9.11-18.62h-6.56v18.62h-9.12v-46.68h18.3q6.94 0 11.14 4.19a13.69 13.69 0 0 1 4 10.1 12.66 12.66 0 0 1-8.52 12.24Zm-11-32.42a5.77 5.77 0 0 0-1.81-4.47 6.8 6.8 0 0 0-4.81-1.66h-8.61v12.26h8.59a6.76 6.76 0 0 0 4.83-1.69 5.76 5.76 0 0 0 1.79-4.44ZM152.26 383.81a70.52 70.52 0 0 1-.52 10.56 15.05 15.05 0 0 1-4.13 8.06 17.56 17.56 0 0 1-5.58 3.84 17.9 17.9 0 0 1-7 1.28 18.19 18.19 0 0 1-7-1.28 17.26 17.26 0 0 1-5.64-3.84 14.63 14.63 0 0 1-4.07-8 108.09 108.09 0 0 1 0-21.18 15 15 0 0 1 4.07-8.06 17.51 17.51 0 0 1 5.61-3.84 19.78 19.78 0 0 1 14 0 17.52 17.52 0 0 1 5.64 3.84 14.88 14.88 0 0 1 4.06 8 64 64 0 0 1 .56 10.62Zm-9.11 0a59.35 59.35 0 0 0-.46-9.11 8.24 8.24 0 0 0-1.84-4 7.33 7.33 0 0 0-5.83-2.5 8.35 8.35 0 0 0-3.38.66 7.28 7.28 0 0 0-2.53 1.84 7.78 7.78 0 0 0-1.8 4 64.86 64.86 0 0 0-.42 9.15 68.59 68.59 0 0 0 .39 9.21 7.49 7.49 0 0 0 7.74 6.4 7.32 7.32 0 0 0 5.83-2.49 8.51 8.51 0 0 0 1.8-4.14 55.19 55.19 0 0 0 .5-9.02ZM203.87 407.15h-9.12v-27.21l-8.92 17.7h-6.16l-9-17.7v27.21h-9.12v-46.68h9l12.15 25.24 12.08-25.24h9.12ZM250.81 407.15h-9.5l-2.76-8.26H222l-2.82 8.26h-9.5l17-46.68h7.14Zm-14.69-15.93-5.7-17-5.9 17ZM292.32 407.15h-8.13L265.7 378.5v28.65h-9.12v-46.68h8.13l18.49 28.59v-28.59h9.12ZM333.24 368.6H321v38.55h-9.11V368.6h-12.2v-8.13h33.51ZM349.76 407.15h-9.12v-46.68h9.12ZM393.43 392.79a17.42 17.42 0 0 1-6 11 17.06 17.06 0 0 1-11.22 3.74 18 18 0 0 1-6.91-1.31 17.31 17.31 0 0 1-5.68-3.81 14.63 14.63 0 0 1-4.07-8 108.09 108.09 0 0 1 0-21.18 15 15 0 0 1 4.07-8.06 17.31 17.31 0 0 1 5.64-3.84 18 18 0 0 1 6.95-1.28 17.09 17.09 0 0 1 11.22 3.68 17.45 17.45 0 0 1 6 11.08h-9.25a9.14 9.14 0 0 0-2.55-4.72 7.47 7.47 0 0 0-5.31-1.91 7.3 7.3 0 0 0-5.84 2.43 8.19 8.19 0 0 0-1.8 4.13 57.06 57.06 0 0 0-.49 9.05 58.75 58.75 0 0 0 .46 9.11 8.23 8.23 0 0 0 1.83 4.07 8.31 8.31 0 0 0 11 .62 9.36 9.36 0 0 0 2.65-4.82ZM450 375a13.86 13.86 0 0 1-4 10.25 15.33 15.33 0 0 1-11.34 4.33h-9v17.57h-9.11v-46.68h18.1q7.08 0 11.34 4.26A14 14 0 0 1 450 375Zm-9.11 0a6.15 6.15 0 0 0-1.84-4.66 6.77 6.77 0 0 0-4.91-1.77h-8.53v12.78h8.53a6.9 6.9 0 0 0 4.91-1.7 6 6 0 0 0 1.85-4.65ZM490.6 383.81a68.74 68.74 0 0 1-.53 10.56 15 15 0 0 1-4.13 8.06 17.41 17.41 0 0 1-5.57 3.84 17.9 17.9 0 0 1-7 1.28 18.19 18.19 0 0 1-7-1.28 17.15 17.15 0 0 1-5.64-3.84 14.63 14.63 0 0 1-4.07-8 108.09 108.09 0 0 1 0-21.18 15 15 0 0 1 4.07-8.06 17.47 17.47 0 0 1 5.6-3.84 19.81 19.81 0 0 1 14 0 17.37 17.37 0 0 1 5.63 3.84 15 15 0 0 1 4.07 8 65.15 65.15 0 0 1 .57 10.62Zm-9.11 0a59.35 59.35 0 0 0-.46-9.11 8.24 8.24 0 0 0-1.84-4 7.34 7.34 0 0 0-5.83-2.5 8.35 8.35 0 0 0-3.38.66 7.28 7.28 0 0 0-2.53 1.84 7.7 7.7 0 0 0-1.8 4 63.31 63.31 0 0 0-.42 9.15 68.59 68.59 0 0 0 .39 9.21 7.49 7.49 0 0 0 7.74 6.4 7.33 7.33 0 0 0 5.83-2.49 8.51 8.51 0 0 0 1.8-4.14 55.19 55.19 0 0 0 .5-9.02ZM535.25 407.15h-10.56l-9.11-18.62H509v18.62h-9.11v-46.68h18.31q7 0 11.15 4.19a13.72 13.72 0 0 1 4 10.1 12.67 12.67 0 0 1-8.52 12.24Zm-11-32.42a5.79 5.79 0 0 0-1.8-4.47 6.82 6.82 0 0 0-4.82-1.66H509v12.26h8.59a6.77 6.77 0 0 0 4.79-1.69 5.78 5.78 0 0 0 1.85-4.44ZM572.82 368.6h-12.19v38.55h-9.12V368.6h-12.19v-8.13h33.5ZM637.74 407.15h-9.12v-27.21l-8.92 17.7h-6.16l-9-17.7v27.21h-9.12v-46.68h8.95l12.15 25.24 12.08-25.24h9.12ZM681.54 383.81a68.74 68.74 0 0 1-.53 10.56 15.05 15.05 0 0 1-4.13 8.06 17.41 17.41 0 0 1-5.57 3.84 17.91 17.91 0 0 1-7 1.28 18.27 18.27 0 0 1-7-1.28 17.22 17.22 0 0 1-5.63-3.84 14.63 14.63 0 0 1-4.07-8 108.09 108.09 0 0 1 0-21.18 15 15 0 0 1 4.07-8.06 17.47 17.47 0 0 1 5.6-3.84 19.78 19.78 0 0 1 14 0 17.31 17.31 0 0 1 5.64 3.84 15 15 0 0 1 4.07 8 65.15 65.15 0 0 1 .55 10.62Zm-9.12 0a59.76 59.76 0 0 0-.45-9.11 8.24 8.24 0 0 0-1.84-4 7.35 7.35 0 0 0-5.84-2.5 8.34 8.34 0 0 0-3.37.66 7.28 7.28 0 0 0-2.53 1.84 7.62 7.62 0 0 0-1.8 4 62.87 62.87 0 0 0-.43 9.15 66.34 66.34 0 0 0 .4 9.21 7.49 7.49 0 0 0 7.73 6.4 7.34 7.34 0 0 0 5.84-2.49 8.6 8.6 0 0 0 1.8-4.14 55.51 55.51 0 0 0 .49-9.02ZM728.62 407.15H718l-12-21.24-6 7.21v14h-9.11v-46.65H700v20.33l16.46-20.33h11.04L712 379ZM768 375a13.87 13.87 0 0 1-4.07 10.22 15.3 15.3 0 0 1-11.34 4.33h-9v17.57h-9.12v-46.65h18.1q7.08 0 11.34 4.26A14 14 0 0 1 768 375Zm-9.12 0a6.18 6.18 0 0 0-1.83-4.66 6.79 6.79 0 0 0-4.92-1.77h-8.52v12.78h8.52a6.93 6.93 0 0 0 4.92-1.7 6.06 6.06 0 0 0 1.79-4.65ZM808.54 383.81a69.14 69.14 0 0 1-.52 10.56 15.05 15.05 0 0 1-4.13 8.06 17.63 17.63 0 0 1-5.57 3.84 18 18 0 0 1-7 1.28 18.23 18.23 0 0 1-7-1.28 17.36 17.36 0 0 1-5.64-3.84 14.62 14.62 0 0 1-4.06-8 106.06 106.06 0 0 1 0-21.18 15 15 0 0 1 4.06-8.06 17.62 17.62 0 0 1 5.61-3.84 19.78 19.78 0 0 1 14 0 17.41 17.41 0 0 1 5.64 3.84 14.88 14.88 0 0 1 4.06 8 64 64 0 0 1 .55 10.62Zm-9.11 0a59.35 59.35 0 0 0-.46-9.11 8.33 8.33 0 0 0-1.83-4 7.36 7.36 0 0 0-5.84-2.5 8.35 8.35 0 0 0-3.38.66 7.24 7.24 0 0 0-2.52 1.84 7.62 7.62 0 0 0-1.8 4 62.87 62.87 0 0 0-.43 9.15 68.59 68.59 0 0 0 .39 9.21 8 8 0 0 0 13.58 3.91 8.69 8.69 0 0 0 1.8-4.14 56.72 56.72 0 0 0 .49-9.02ZM1592.52 423.74H1272.7v-73h124v-58.33h71.92v58.35h124Z" style="fill:#1c4a8c"/><path d="M1272.7 423.74H935.65v-73h130.66v-58.33h71.92v58.35h134.47Z" style="fill:#00884c"/><path d="M1575 266h-284.81v-73h43.1v-88.78h-43.1v-73H1575v73h-43.1V193h43.1Zm-169.82-73H1460v-88.78h-54.8Z" style="fill:#1c4a8c"/><path d="M1060.58 266h-71.92V31.25h231v231h-71.92v-158h-87.19ZM1219.69 697h-71.92V538.92H988.66V466h231Z" style="fill:#00884c"/><path d="M1290.19 266h-229.61v-73h229.61Z" style="fill:#eb6617"/><path d="m99 150.4.37-.53a101.14 101.14 0 0 0 10.35-18.81c.12-.3.26-.6.4-.89-.05.43-.11.87-.16 1.32-.48 3.75-1 7.63-1.74 11.33a212.37 212.37 0 0 0-4.29 32.58 80.67 80.67 0 0 0 3.42 27.73 26.49 26.49 0 0 0 3.08 6.1 4.32 4.32 0 0 0 5.42 2c.85-.34 1-.36 1.2-.29a3.51 3.51 0 0 0 3.23-.21 3.33 3.33 0 0 0 1.56-2.7c.09-1.62 1.11-2.87 2.29-4.32a22 22 0 0 0 2-2.69l.51-.8a9.36 9.36 0 0 0 1.67-3.69l.47-3a96.85 96.85 0 0 0 1.53-14 56.56 56.56 0 0 1 2-13.86c.62-2.38 1.08-4.81 1.56-7.3a78.62 78.62 0 0 1 2.08-9 219.63 219.63 0 0 0 6.54-27.86 26.47 26.47 0 0 1 1.89-6.46q3-6.56 6-13.14 3.51-7.77 7.08-15.53a26.53 26.53 0 0 1 1.81-3.11l.07-.11c.66-1 1.26-2 1.79-3a26.08 26.08 0 0 0 2.1-5.35c3.32-12.44 7-21.51 11.94-29.4 2.17-3.47 2.54-7.52 1.1-12.06a8.8 8.8 0 0 0-3.44-4.35 16.5 16.5 0 0 0-22.7 4 137.51 137.51 0 0 0-16.28 29.91 125.45 125.45 0 0 1-7.11 14.6c-1.22 2.24-2.44 4.48-3.41 6.46-6 8.4-11.63 17.1-17.08 25.51-3.91 6-8 12.24-12.06 18.27C83 144.09 70.25 159.76 57.8 175c-3.62 4.43-7.79 9.15-13.12 14.86a103.1 103.1 0 0 1-8.29 7.63 9.48 9.48 0 0 1-2.13 1.14l-.23.1c-.29-5.95-.61-12.09-2.23-18.18.63-3.68-.06-7.08-.73-10.4-.25-1.25-.51-2.52-.68-3.79-1.18-8.68-2.16-20.11.73-31.47.8-3.15 1.33-6.35 1.83-9.44l.11-.65c.25-1.51.51-3 .79-4.5a18.91 18.91 0 0 0-.6-8.24c-1.22-5.06-4.63-8.17-9.87-9-2.75-.41-6.32.61-7.88 3.39-.92 1.65-2.27 4.14-3.42 6.72-1.72 3.88-3.16 8-4.43 11.61l-.23.66c-.54 1.56-1.07 3.08-1.63 4.56A143.68 143.68 0 0 0 .7 147.41a25.94 25.94 0 0 0-.36 10.21l.24 1.44c.35 2.11.72 4.29.3 6a33.6 33.6 0 0 0-.62 9.65c0 1.44.1 2.92 0 4.38-.4 10.12 2.79 19.38 5.88 28.33l.38 1.09a18.56 18.56 0 0 0 8.25 10c3.67 2.19 7.63 4.35 12.11 6.6a9.56 9.56 0 0 0 4.13 1 7 7 0 0 0 1.31-.11c6.06-1 13.85-2.89 20.32-8.29l2.1-1.76c2.81-2.36 6-5 9.22-7.35a30.37 30.37 0 0 0 8.9-10.13c3.12-5.55 6.4-11.49 9.41-17.65 1.81-3.71 4-7.33 6.13-10.82 3.08-5.05 6.26-10.26 8.48-16.05A16.58 16.58 0 0 1 99 150.4ZM548.71 104.82a38 38 0 0 0-17.86-5.89c-10.7-.66-19.69-.76-28.87.94-4.22.78-8.46 1.48-12.7 2.18l-.67.12c-3.82.63-7.65 1.27-11.47 2a14.6 14.6 0 0 0-3.88 1.47c-.45.22-.88.43-1.31.62l-1.45.61.05 1.58c.22 7.61 4.29 12.47 12.43 14.84 6 1.75 14 3.6 22.43 2.46q-1.68 3.78-3.37 7.54c-2.56 5.68-5.21 11.56-7.66 17.4a197.74 197.74 0 0 0-14.55 60.77c-.58 7.18 1.36 12.8 5.91 17.19.88.83 1.69 1.72 2.51 2.62l1 1.1a17.27 17.27 0 0 0 11.54 5.83h.88a18 18 0 0 0 9.46-2.89 57.66 57.66 0 0 0 5.41-3.75l2.53-2 1.06-.83c3.73-2.91 7.6-5.92 11.2-9.23 4.43-4.08 7.51-9.35 10-17.11 2.67-8.39 2-16.61-1.91-25.11a42.57 42.57 0 0 0-7.05-11.28 13.12 13.12 0 0 1-.9-1.13 9 9 0 0 0-3.53-3.17 14.13 14.13 0 0 1-4.06-2.88c-.65-.58-1.31-1.17-2.19-1.86-3.43-2.66-3.43-2.66-1.73-6.09.19-.36.36-.74.53-1.12l.19-.39a14.9 14.9 0 0 1 2-3.51c4.34-5 6.93-11 9-16.22 2.26-5.7 5.69-9 10.8-10.54a8.71 8.71 0 0 0 5.39-4.06 15.15 15.15 0 0 1 1.29-1.76c.39-.47.76-.94 1.11-1.44a4.71 4.71 0 0 0 .56-3.56 5.43 5.43 0 0 0-2.12-3.45ZM504.37 216c-.08 0-.13-.1-.16-.1 0-1.64.14-3.29.25-4.93l.13-2.37-.13-.79.53-3.11c.51-3 1-6.05 1.57-9.07l.54-3c.73-4 1.47-8.2 2.41-12.23s2.07-8 3.65-12.86a10.75 10.75 0 0 0 .31-1 11 11 0 0 1 .44-1.36 8.91 8.91 0 0 1 .67 1.89 221.17 221.17 0 0 1 5.54 24.18c1 6.34-.9 12-6.11 18.3a25.18 25.18 0 0 1-9.19 6.64.74.74 0 0 1-.45-.19ZM586.54 130.38a38.48 38.48 0 0 1 1.76 8 53.22 53.22 0 0 0 1.37 7.13 90.3 90.3 0 0 1 2 9.48c.33 1.92.67 3.84 1.08 5.73a174.75 174.75 0 0 0 4.5 17.48 32.4 32.4 0 0 0 2.25 5.36 17.82 17.82 0 0 1 2.15 6.78 36.33 36.33 0 0 0 5 13.66l.42.48.52.35a3.34 3.34 0 0 0 1.76.69c2.66.17 4.64.57 6.27 2.05a4.88 4.88 0 0 0 3.38 1.3h.26a10.28 10.28 0 0 0 2.82-.63l.68-.22c3-.87 3-4.09 3-5.82-.14-11.73-1.8-19.19-3.57-27.08-.36-1.63-.73-3.29-1.1-5a280 280 0 0 1-4.62-31.86 122.89 122.89 0 0 0-1.92-13.75 72.48 72.48 0 0 1-1.93-14.08c-.07-7.81-1.92-14.68-3.55-20.75l-.12-.46c-.51-1.91-.85-3.47-1.18-5a53.17 53.17 0 0 0-3-10.13c-2.58-6.09-5.41-13.09-9.87-16.5a45.37 45.37 0 0 0-8.68-5.36 12.49 12.49 0 0 0-4.38-.65 18 18 0 0 1-2.32-.2 5.25 5.25 0 0 0-2.8.38c-.73.24-1.47.49-1.85.26a3.15 3.15 0 0 0-3.34.19 4.35 4.35 0 0 0-2.07 3.93l.15 1.33a20.94 20.94 0 0 0 .73 4.19c.65 2.16 1.37 4.31 2.11 6.45s1.47 4.31 2.11 6.5c6.07 20.15 8.91 33.36 11.27 52.41a15.09 15.09 0 0 0 .71 3.36ZM286.49 195.45a19 19 0 0 1 1.09-2.15c.31-.54.61-1.08.91-1.65a6.92 6.92 0 0 0 .47-5.53 3.32 3.32 0 0 0-2.07-1.93c-2.62-.82-4.4.61-5.46 1.47l-.53.42a6.68 6.68 0 0 1-.86.55 7.75 7.75 0 0 1-.2-1.17c-.24-2.4-.38-4.52-.41-6.49-.05-3.07 0-6.15 0-9.72v-5.31l-.13-4c-.1-3.45-.22-7.36-.53-11.32a63.66 63.66 0 0 0-1.91-10.27 13.79 13.79 0 0 0-2.57-4.67 7 7 0 0 0-7.23-3 41 41 0 0 0-4.61 1.07c-8 2.3-15.78 6.32-24.51 12.63-5.5 4-11 8.66-13.93 16a.43.43 0 0 1-.05.12 4.33 4.33 0 0 1-.52-.4c-.36-.32-.69-.66-1-1l-.15-.15c-.39-.41-.79-.82-1.2-1.19a5.33 5.33 0 0 0-4.4-1.62 3.19 3.19 0 0 0-2.26 1.66l-.23.42a4.65 4.65 0 0 0-.9 2.69c.27 7.53.57 15.59 1 23.55.12 2.05.33 4.09.55 6.19.26 2.57.57 5.48.6 8.23.13 9.32 2.78 17.92 5.64 25.83 3 8.25 9.24 12.91 18.17 13.49h1a9.47 9.47 0 0 0 6.93-2.67c2.9-2.79 6.29-6 9.79-8.9s7.06-5.51 10.67-8.19l1.7-1.26c.45-.34.9-.71 1.39-1.1A9.72 9.72 0 0 1 274 214c5.69-1.21 7.6-5.41 8.94-9.26 1.06-3.06 2.29-6.19 3.55-9.29Zm-43.6 19.05-.75.37.37.72-.39-.7a1.19 1.19 0 0 1-.78-.12c-.12-.06-.27-.15-.29-.26-.26-1.32-.52-2.68-.67-4-1.44-13.8-3.95-24.71-7.87-34.33a38.48 38.48 0 0 1-1.74-6.06 6.12 6.12 0 0 1 2.64-6.2l.42-.28a6.15 6.15 0 0 1 1.54-.84c2.9-.34 4.26-.46 5.61-.57s2.72-.23 5.79-.61a12.8 12.8 0 0 1 6.06 1c.13 1.39.17 1.94.2 2.48s.08 1.1.34 3.49c.35 3.17.73 6.33 1.13 9.5l.1.89c.4 3.19.79 6.38 1.13 9.58a32.94 32.94 0 0 0 2.71 9.13c.56 1.41 1.15 2.86 1.67 4.4l-3.21 2.34c-4.51 3.3-8.79 6.42-13.08 9.54a7.48 7.48 0 0 1-.93.53Zm-21.22-55ZM886.34 169.13a38.1 38.1 0 0 0-12.89-3.72c-5-.34-11-.71-16.87-.87-9-.24-18.59-.39-28.38-.47h-1.65c-5.37-.05-10.9-.09-16.37.28-11.67.78-23.66 1.78-35.63 2.95a92.86 92.86 0 0 1-19.43-.11c-7.19-.77-14.65-1.18-21.07-1.52a37.65 37.65 0 0 0-14 1.62l-1.61.53V170.04a3.22 3.22 0 0 0 .46 2.16 30.26 30.26 0 0 1 3 6c1.49 3.64 3 7.41 8.19 9.77 5.41 2.44 11.91 5.03 18.91 5.57.7.05 1.41.08 2.12.09h.63a218.51 218.51 0 0 0 31.78-3.19 75.81 75.81 0 0 1 10.88-.62c4.59-.06 9.33-.13 12.76-.88a27.67 27.67 0 0 1 3.68-.5 27.06 27.06 0 0 0-.38 8.18c1.23 14 .45 21-1.13 35.09l-.08.76c-1.46 12.93-1.46 12.93-6 27.17l-.51 1.58c-.23.74-.47 1.79-.74 2.94a26.66 26.66 0 0 1-1.6 5.45 33.18 33.18 0 0 0-1.5 4c-.33 1-.64 1.91-.89 2.5-.52 1.21-.78 1.8-.92 2.09s-.54.84-1.41 2.93l-2.69 6.36a61.22 61.22 0 0 0-4.66 16 6.53 6.53 0 0 0 2 4.88 5.73 5.73 0 0 0 3.29 1.8 5.48 5.48 0 0 0 .89.09h.19c1.51-.06 9.37-3.16 10.49-4.52s2.07-2.49 3.11-3.71a55.52 55.52 0 0 0 7.2-10.79c1-2 1.91-3.84 2.74-5.48a90.73 90.73 0 0 0 5.16-11.29 64 64 0 0 1 4.31-10.29c1.53-2.92 2.3-4.39 3.88-14.87.16-1.08.34-2.15.52-3.24h.07l.73-1.77c1.43-3.49 1.66-7.13 1.87-10.65a51.46 51.46 0 0 1 .58-5.86c.48-2.66.89-4.88 1.42-7.11 3.22-13.76 4.41-22.28 2.33-32.37h1.19c7.19-.16 14.64-.31 23.2 0a49.25 49.25 0 0 0 21.37-4.31 10.45 10.45 0 0 0 3.39-2.18 8.35 8.35 0 0 0 2.13-3.82c.72-3.16-1.25-7.48-4.06-8.87ZM721.17 113.7c3.21-4.7 1.88-9.49.58-12.69l-.36-.9-.9-.37c-1-.4-1.92-.76-2.87-1.14-1.83-.71-3.56-1.39-5.14-2.18a15.48 15.48 0 0 0-9.55-1.11c-1.78.28-3.6.48-5.47.68l-3.94.44c-1.38.15-2.75.31-4.19.54-6.87 1.09-14.69 2.33-22.41 2a25.64 25.64 0 0 0-5.77.32 68.51 68.51 0 0 1-13.18.93h-8.93a86.25 86.25 0 0 0-9 .26 18.14 18.14 0 0 1-9.99-1.48c-1.62-.78-3.19.42-4 1.08a3.21 3.21 0 0 0-.86 3.55l.59 1.74c.8 2.37 1.63 4.82 2.57 7.2a58.66 58.66 0 0 0 3.19 6.89 19.21 19.21 0 0 0 13.85 10.15c4.93.86 9.9 2 14.83 3.21 5.48 1.31 11.16 2.65 16.86 3.57a64 64 0 0 0 7.15.82h2.67a171.09 171.09 0 0 0 33.52-5 6.24 6.24 0 0 0 4.65-4.18 10.38 10.38 0 0 1 2-3.22l.34-.43a9 9 0 0 0 2.07-5.13 9.59 9.59 0 0 1 1.69-5.55ZM419.35 231.47l-1-.31a17.64 17.64 0 0 0-5.82-1.17 29.41 29.41 0 0 0-11 2.35A161 161 0 0 1 386 238c-3.55 1.1-7.22 2.06-10.77 3-2.81.73-5.61 1.47-8.39 2.28-3.22.94-6.62 1.58-10 2.21s-6.9 1.29-10.41 2.3a54.71 54.71 0 0 1-11.68 1.58h-.32c-1.38.1-2.77.19-4.15.31a19.75 19.75 0 0 1-8.33-1c-1.75-.61-3.5-1.18-5.27-1.74-2.66-.86-5.68-1.82-8.5-3l-2.63-1c-4.9-1.94-9.53-3.76-13.3-7.17a4.47 4.47 0 0 0-5.83 0 12 12 0 0 0-4.78 8.13 10.68 10.68 0 0 0 2.54 8 30.48 30.48 0 0 0 3.95 4.06c5.28 4.3 11.1 8.72 17.93 11.88l.95.44a41.42 41.42 0 0 0 7.2 2.82 96 96 0 0 0 20.5 3.17h3.73a10.32 10.32 0 0 0 1.54-.08l4.58-.53c5.68-.66 12.12-1.41 18.35-2.35a15.92 15.92 0 0 0 4.13-1.37 14.37 14.37 0 0 1 2.83-1 53.74 53.74 0 0 0 16.42-5.94 108.52 108.52 0 0 1 11.1-5.15c2.44-1 4.63-1.94 6.82-3 .62-.29 1.26-.55 2.05-.87q.89-.36 1.77-.75c7.05-3.12 11.55-8.81 13.73-17.39a4.1 4.1 0 0 0-2.41-4.37ZM321.66 208.8l.25.31a26.27 26.27 0 0 0 15 9.23 3 3 0 0 0 .66.08 5.9 5.9 0 0 0 4.27-2.56 12 12 0 0 0 1.87-4.83c.62-4.39 1.24-9.08 1.61-13.72a138.25 138.25 0 0 1 4.28-25.43c4.19-15.53 7.33-31.4 10.19-46.33.57-3 1-6.22 1.28-8.55l.11-.86c.11-.89.23-1.79.36-3l-.09-2.24c-.06-1.42-.11-2.62-.24-3.82-.19-1.83-.41-3.64-.63-5.55-.29-2.31-.56-4.62-.78-6.94-.56-5.93-4.32-9.43-7.54-11.82a5.27 5.27 0 0 0-5.29-.23 4.21 4.21 0 0 0-2.58 3.56 48.13 48.13 0 0 1-2.5 13.75c-3.7 11.14-6.29 19.89-8.39 28.37-2 8.17-4 15.4-6.12 22.12-2.85 9.12-5 18.53-7 27.63l-.24 1.06a72.14 72.14 0 0 0-1.14 22.72 13.17 13.17 0 0 0 2.66 7.05ZM136.36 255.25a158.71 158.71 0 0 1-15.68-13.78l-2.08-2a5.35 5.35 0 0 0-6.56-.89 1.28 1.28 0 0 1-.29.12c-2.22.46-2.64.18-2.67.17s-.33-.24-.64-1.83c-.26-1.3-.53-2.64-.7-4-.23-1.9-.44-3.81-.65-5.72l-.32-2.67-.67-1.88h-1.84a3.61 3.61 0 0 0-2.22.48 5.14 5.14 0 0 0-2.22 1.93c-6.47 11.6-9.09 21.84-8.25 32.22.43 5.15 1 10.35 1.55 15.38l.38 3.42c.5 4.71 2.15 9 3.78 13.25l.13.36a16.42 16.42 0 0 0 5.67 7.77c4.07 2.86 9 5.95 14.93 7.16a20.67 20.67 0 0 0 4.29.43c5.28 0 12.25-2 16-7.44 8.08-11.92 8.95-20.32 3.57-34.59-.58-1.44-3.98-6.76-5.51-7.89ZM122.53 284l-.08.07c-1.67-1.82-4.12-6.5-5.06-8.9-2.35-6.08-4.27-12.51-5.88-18.26 9.85 5.86 12.79 10.06 15.4 16.88.68 1.79-1.63 6.49-2.5 8.26l-.34.71c-.31.32-1.13.96-1.54 1.24Z" style="fill:#1c4a8c"/><path d="M224.74 101.34c1.87-.92 3.77-1.8 5.65-2.68l.68-.31c3.24-1.51 6.59-3.07 9.83-4.73a41.07 41.07 0 0 1 16-5 17.05 17.05 0 0 0 7.94-2.62 12.62 12.62 0 0 0 6.3-9.56l.07-.55-.19-.5c0-.11-.07-.24-.14-.52a7.15 7.15 0 0 0-1.15-2.63 12.56 12.56 0 0 0-7.62-4.45 29.65 29.65 0 0 0-18.88 1.83c-.8.37-1.59.76-2.54 1.23-1.3.64-2.64 1.3-4 1.83-11.89 4.6-23.47 10.19-34.69 15.6l-4.7 2.27-40.8 14.62a15.64 15.64 0 0 0-6.68 2.92 5.41 5.41 0 0 0-2.22 4.33 4.72 4.72 0 0 0 1.88 3.83l1.1.83a45.63 45.63 0 0 0 4.2 3 11.44 11.44 0 0 0 4.85 1.74c2.49.21 5 .32 7.34.32a64.48 64.48 0 0 0 24.61-4.55 192.74 192.74 0 0 0 25.88-12.36c2.4-1.42 4.84-2.72 7.28-3.89ZM481.28 34.49a159.93 159.93 0 0 0 7.93 16.19 162.41 162.41 0 0 1 11.43 23.14c2.34 6 5.86 11.12 9.89 16.67a5.55 5.55 0 0 0 2.7 2.17 10.61 10.61 0 0 0 2.63.46h1.15c.8 0 3.45-.4 4.07-4a32.4 32.4 0 0 0 .29-3.61v-.36c0-.77.08-1.69.13-2.72a26.71 26.71 0 0 0-.63-8.86 20.75 20.75 0 0 1-.39-5.6c.22-6.7-1-13.18-2.46-19.2-1.76-7.46-4.81-14.76-9.89-23.66a41.07 41.07 0 0 0-11-12.24A82.53 82.53 0 0 0 483 4.63c-2.35-1.16-4.79-2.36-7.11-3.66a8.14 8.14 0 0 0-7-.35c-.42.16-.87.31-1.32.46l-.21.07-1.45.52a5.13 5.13 0 0 0-3.11 3.88 4.5 4.5 0 0 0 1.33 4.23l1.18 1.05a39.86 39.86 0 0 1 5.25 5.22 84.9 84.9 0 0 1 10.72 18.44ZM618.93 242.11a30.81 30.81 0 0 1-1.53-3.1 18.68 18.68 0 0 0-4.78-6.23 22.73 22.73 0 0 1-3.09-3.38c-2-2.83-5-5.42-7.93-7.93-1.39-1.2-2.83-2.44-4-3.61a13.49 13.49 0 0 0-2-1.53l-.31-.21c-2.65-1.79-7.32-1-9.81 1.61a6.94 6.94 0 0 0-.58 8.75 33.7 33.7 0 0 0 1.77 2l.15.17a34.12 34.12 0 0 1 2.63 3.16h-.23l-.58.85c-7.59 11.37-10.94 24.36-13.42 36.72a32.27 32.27 0 0 0 2.17 19.65c3.18 7.27 12.79 15 22 15a14.71 14.71 0 0 0 3.87-.51l.86-.23a14.58 14.58 0 0 0 5.64-2.44 31.07 31.07 0 0 1 4.56-2.77c3.88-2.08 8.28-4.44 9.45-10 4.42-3.53 3.59-16.74 3.57-16.87-.97-10.62-2.1-18.43-8.41-29.1Zm-17.76 41.09-.24-.48-.12-.25a9.87 9.87 0 0 1-1-2.66 20.09 20.09 0 0 1-.06-5.55c.81-6.76.46-13.46 0-20.3a71.86 71.86 0 0 0-2-13.92c.18.19.37.41.58.66.61.72 1.2 1.41 1.79 2.08l.3.34c5 5.75 9.36 10.71 10.49 27.41.18 2.71.18 2.71-2.57 8.11-.37.73-3.22 2.38-4.53 3.13a21.47 21.47 0 0 0-2.29 1.4 1.42 1.42 0 0 1-.35.03ZM433 154a31.83 31.83 0 0 0-7.73-1.4 43.1 43.1 0 0 0-7.74.36 103.65 103.65 0 0 1-22.62.47l-3.31-.3c-2-.19-4-.37-6.05-.59-6.85-.75-13.3.07-20.42 1.15a15 15 0 0 0-11.54 8.27 5.37 5.37 0 0 0 1.28 6.62 39.83 39.83 0 0 0 12.93 6.35l5.45 1.6c4.22 1.25 8.45 2.5 12.7 3.68a11.9 11.9 0 0 0 3.67.29h8.33c.73 0 1.46 0 2.18.06.87 0 1.74.05 2.61.05h1.62a75.38 75.38 0 0 0 25.16-5.89 64 64 0 0 0 9.48-5.32 5.52 5.52 0 0 0 2.24-5c-.88-5.4-3.73-8.98-8.24-10.4ZM748 84.08l2.17.25c1.44.17 1.44.17 1.88.39a25 25 0 0 0 3.1 1.28l11.32 1.55c1.19.14 2.47.25 3.74.37a70.2 70.2 0 0 1 7.23.88c2 .41 3.33.59 4.39.73.76.11 1.42.2 2.15.35l2.7.55a24.69 24.69 0 0 0 2.71.47l2.57.33a24.71 24.71 0 0 1 6.18 2.64l.87.57c2.88 1.91 3.19 2.11 5.82 5.58a28.12 28.12 0 0 0 1.94 2.3 10.16 10.16 0 0 1 2.51 3.9c.53 1.39 1 2.39 1.38 3.33.52 1.19 1 2.32 1.63 4.13.93 2.73 1.94 5.45 2.94 8.16a20.66 20.66 0 0 0 1.25 2.87 14.44 14.44 0 0 1 1.18 3 157.22 157.22 0 0 1 4.23 16A29.14 29.14 0 0 0 826.3 154a17.41 17.41 0 0 0 4.3 4.11l.81.62a3.43 3.43 0 0 0 2.05.61 4 4 0 0 0 2.95-1.18c5.57-6.47 7.29-12.58 5.75-20.41-.12-.6-.25-1.21-.4-1.88s-.33-1.44-.46-2.17a30.49 30.49 0 0 1-.25-4.11 27.51 27.51 0 0 0-.37-5c-.53-2.46-.64-3.18-.82-4.39-.1-.73-.24-1.62-.49-3.13-.72-4.17-1.09-5.62-1.56-7.44-.23-.88-.49-1.88-.82-3.33-.1-.44-.24-.89-.38-1.35a17.28 17.28 0 0 1-.46-1.73 16.8 16.8 0 0 0-1.24-4.15c-1.08-2.16-2.09-4.09-3.08-6-1.54-3-3-5.75-4.54-9.08l-8.15-8.63a12.64 12.64 0 0 0-1.1-1.09c-.25-.23-.54-.48-.88-.77-.5-.43-1.11-1-1.91-1.69a97 97 0 0 0-17.37-11.32 42.06 42.06 0 0 0-7.31-2.73l-.94-.29A76.56 76.56 0 0 0 769.81 54a31 31 0 0 0-5.66.38c-2.7.39-15.91 6.13-18.84 12.3-1.26 2.67-1.62 4.92-.58 12 .27 1.49.77 5.08 3.27 5.4Z" style="fill:#1c4a8c"/></svg>